<svg width="269" height="217" viewBox="0 0 269 217" fill="none" xmlns="http://www.w3.org/2000/svg">
<rect width="269" height="217" fill="white"/>
<path d="M237 109.5C237 164.452 191.333 209 135 209C78.667 209 33 164.452 33 109.5C33 54.5477 78.667 10 135 10C191.333 10 237 54.5477 237 109.5Z" fill="url(#paint0_linear_0_1)"/>
<path d="M172.3 161.097C205.589 137.273 231.999 110.097 247.714 85.2437C255.565 72.8287 260.887 60.7713 262.928 49.8371C264.972 38.8846 263.785 28.6114 257.963 20.4758C252.14 12.3402 242.8 7.90201 231.773 6.30364C220.765 4.70797 207.635 5.85629 193.351 9.28171C164.757 16.139 130.514 32.3698 97.2246 56.1938C63.9351 80.0177 37.5251 107.194 21.8099 132.047C13.9596 144.462 8.63693 156.52 6.59609 167.454C4.55182 178.406 5.73935 188.68 11.5617 196.815C17.384 204.951 26.7248 209.389 37.7512 210.987C48.7592 212.583 61.8891 211.435 76.1729 208.009C104.767 201.152 139.01 184.921 172.3 161.097Z" stroke="url(#paint1_linear_0_1)" stroke-width="10"/>
<defs>
<linearGradient id="paint0_linear_0_1" x1="135" y1="10" x2="135" y2="209" gradientUnits="userSpaceOnUse">
<stop stop-color="#FFB800"/>
<stop offset="1" stop-color="#FF003D"/>
</linearGradient>
<linearGradient id="paint1_linear_0_1" x1="100.134" y1="60.2598" x2="171.262" y2="155.145" gradientUnits="userSpaceOnUse">
<stop/>
<stop offset="1" stop-color="#A29898" stop-opacity="0"/>
</linearGradient>
</defs>
</svg>
